<svg width="800" height="800" viewBox="0 0 800 800" fill="none" xmlns="http://www.w3.org/2000/svg">
<rect width="800" height="800" fill="white"/>
<path fill-rule="evenodd" clip-rule="evenodd" d="M182.229 146.402C191.983 156.175 191.967 172.004 182.194 181.758C126.24 237.6 91.6665 314.739 91.6665 400C91.6665 486.26 127.054 564.207 184.168 620.197C194.027 629.863 194.185 645.69 184.519 655.55C174.854 665.41 159.025 665.567 149.165 655.9C82.8545 590.897 41.6665 500.237 41.6665 400C41.6665 300.928 81.9068 211.205 146.874 146.367C156.647 136.614 172.476 136.63 182.229 146.402ZM620.546 148.815C630.406 139.15 646.233 139.307 655.9 149.167C719.236 213.775 758.333 302.348 758.333 400C758.333 498.817 718.303 588.33 653.633 653.127C643.88 662.9 628.05 662.917 618.28 653.163C608.507 643.41 608.49 627.58 618.243 617.807C673.94 562 708.333 485.04 708.333 400C708.333 315.958 674.74 239.81 620.196 184.169C610.53 174.309 610.686 158.481 620.546 148.815ZM276.974 249.586C286.408 259.667 285.884 275.487 275.803 284.922C244.172 314.521 225 355.007 225 399.407C225 444.323 244.623 485.243 276.918 514.93C287.083 524.273 287.749 540.087 278.405 550.253C269.062 560.417 253.246 561.083 243.081 551.74C201.322 513.353 175 459.413 175 399.407C175 340.1 200.716 286.709 241.638 248.414C251.72 238.98 267.54 239.504 276.974 249.586ZM524.763 250.853C534.306 240.875 550.13 240.524 560.11 250.067C600.017 288.238 625 340.953 625 399.407C625 458.56 599.417 511.827 558.68 550.1C548.62 559.557 532.796 559.063 523.343 549C513.89 538.937 514.383 523.117 524.443 513.663C555.926 484.083 575 443.693 575 399.407C575 355.64 556.37 315.682 525.546 286.2C515.57 276.656 515.22 260.831 524.763 250.853Z" fill="#8A38F5"/>
<path d="M455.21 348.373C485.07 370.293 500 381.253 500 400.003C500 418.75 485.07 429.71 455.21 451.633C446.97 457.683 438.793 463.38 431.28 468.13C424.69 472.293 417.226 476.603 409.496 480.833C379.71 497.137 364.813 505.287 351.456 496.263C338.096 487.237 336.883 468.343 334.456 430.557C333.77 419.87 333.333 409.393 333.333 400.003C333.333 390.61 333.77 380.133 334.456 369.447C336.883 331.661 338.096 312.767 351.456 303.742C364.813 294.717 379.71 302.868 409.496 319.172C417.226 323.401 424.69 327.71 431.28 331.875C438.793 336.623 446.97 342.32 455.21 348.373Z" fill="#FF0000"/>
</svg>
